<svg width="335" height="400" viewBox="0 0 335 400" fill="none" xmlns="http://www.w3.org/2000/svg">
<g clip-path="url(#clip0_1_200)">
<path d="M102 2.33334C91.6 4.60001 78.9333 10.3334 68 17.8C60.4 23.1334 58.9333 23.6667 55.6 22.4667C52.2667 21.2667 51.3333 21.6667 44 29C35.4667 37.5334 33.6 40.7334 35.8667 43.5334C36.9333 44.8667 35.6 47.9334 30.2667 55.9333C18.2667 73.8 10.5333 96.6 10.6667 113.933L10.8 121L14.2667 114.333C22.5333 98.3333 51.3333 65.6667 57.0667 65.6667C58.4 65.6667 60.6667 66.8667 62 68.3333C63.3333 69.9333 65.2 70.8667 66 70.4667C66.9333 70.2 86 88.3334 108.533 110.867L149.333 151.8L116.4 184.467C98.1333 202.467 78.4 221.933 72.4 227.667C66.2667 233.4 61.3333 238.733 61.3333 239.667C61.3333 240.467 64.8 244.467 69.0667 248.733L76.8 256.333L107.6 225.4C124.533 208.333 143.867 188.6 150.533 181.667L162.533 169L162.667 179.933C162.667 190.733 162.533 191 158.8 192.867C153.333 195.8 150.667 200.6 150.667 207.8C150.667 213.4 151.2 214.6 156 219.133C158.933 221.933 161.333 224.733 161.333 225.4C161.333 226.067 158.267 227 154.533 227.4C147.2 228.333 140.533 231.533 138.133 235.4C136.933 237.4 137.2 238.333 139.467 240.067C142.133 242.333 142.133 242.733 140.533 268.333C139.6 282.6 138.4 297.8 138 301.933C137.2 307.8 137.333 309.667 138.667 309.667C141.467 309.667 138.933 344.467 135.067 359.933L134 364.2L128.667 361.267L123.333 358.2L122.533 346.2C121.867 337.267 120.8 332.333 118.133 326.867C114.133 318.467 106 308.467 104.533 310.067C104 310.6 103.467 316.067 103.467 322.2C103.333 332.467 103.733 334.067 108.133 342.733L113.067 352.2L106.8 347.533C103.467 344.867 100.133 341.8 99.4667 340.733C98.8 339.533 98.1333 333.133 98 326.467C97.8667 317.8 96.9333 312.2 94.9333 307C91.7333 298.733 84.2667 288.867 82.5333 290.6C80.4 292.733 79.6 307.667 81.2 315.133C82.1333 319.133 84.2667 324.6 86.1333 327.4C88 330.333 89.3333 332.867 89.0667 333.133C88.8 333.4 85.2 330.333 81.2 326.2L74 318.867V299.933C74 281.933 73.8667 280.6 70.1333 272.6C68 268.067 65.8667 264.333 65.4667 264.333C64.9333 264.333 63.3333 267.533 62 271.267C58.9333 279.933 58.8 293.4 61.7333 301.267C62.9333 304.467 63.7333 307 63.4667 307C62.4 307 50.6667 288.333 50.6667 286.6C50.6667 285.533 52.1333 280.067 54 274.467C56.1333 267.8 57.3333 261.267 57.3333 255.533C57.3333 247.267 55.2 235 53.6 235C52.4 235 49.4667 239.4 45.7333 246.333C42 253.533 41.0667 263.533 43.0667 275C43.7333 278.867 42.2667 276.067 39.3333 267.267L34.5333 253.533L38.1333 247.267C47.3333 231.267 49.2 227.133 50.5333 219.8C52.4 209.8 52.4 203 50.6667 203C49.8667 203 46.2667 205.933 42.8 209.4C36.6667 215.533 34.5333 219.8 31.2 233C30.4 236.467 30 235.667 29.2 227.8C28 216.867 28.2667 216.067 38.8 204.467C43.2 199.8 48.1333 192.867 49.8667 189.133C52.9333 182.333 55.4667 172.333 54 172.333C53.6 172.333 50.9333 173.533 48.1333 174.867C40.9333 178.6 33.7333 186.6 30.6667 194.333L27.8667 201L28.6667 194.333C30.1333 181.667 31.4667 179.4 41.4667 172.867C51.8667 165.933 57.3333 159.667 62 149.133C65.7333 140.6 65.2 140.067 55.6 144.2C48.5333 147.267 39.3333 155.133 36.5333 160.733C35.3333 162.867 34.1333 164.333 33.8667 163.933C32.2667 162.467 40.8 148.6 47.4667 141.667C51.3333 137.533 55.7333 131.4 57.2 128.2C60 121.933 62.4 107 60.8 107C59.2 107 48.9333 114.467 45.7333 117.8C40.5333 123.533 37.3333 131.667 36 142.733C35.2 148.733 34 155 33.3333 156.6C32.2667 159.267 32.1333 159 32.1333 154.6C32 149 25.6 128.333 23.8667 128.333C23.3333 128.333 21.6 131.8 20 135.933C16 146.733 16.8 157.8 22.4 170.733C26.5333 179.933 26.6667 180.733 25.6 190.067C24.6667 197 24.2667 198.2 24.1333 194.333C23.8667 187.4 18.8 175.133 13.2 167.8C10.6667 164.6 8.53332 162.067 8.26665 162.2C8.13332 162.467 7.33332 165.8 6.66665 169.8C4.26665 182.867 7.73332 194.467 18.5333 208.733C22.2667 213.667 24.1333 217.933 25.2 223.533C27.3333 235.267 26.9333 236.467 23.4667 228.733C20 221.533 11.6 211.533 4.93332 206.733L0.933319 203.8L1.59999 212.733C2.66665 225.933 7.33332 234.333 19.6 245.267C29.3333 254.067 32 257.933 36.5333 269L38.6667 274.333L35.7333 270.333C30 262.6 22 255.933 13.7333 251.933C9.06665 249.8 4.93332 248.333 4.53332 248.733C3.33332 249.8 8.79999 262.333 13.2 268.733C18 275.8 26 281.667 36 285.667C45.0667 289.267 46.8 290.467 52.2667 297.667C59.3333 307 59.3333 307.533 53.0667 302.733C49.8667 300.2 44.2667 297 40.5333 295.4C34.1333 292.6 20 289.4 20 290.733C20 291 22.6667 295 25.8667 299.533C33.7333 310.467 42.8 315.933 57.4667 318.467C69.4667 320.467 71.0667 321.267 80 329.533L86 335L78 331.4C71.4667 328.467 67.6 327.667 56.6667 327.267L43.3333 326.733L48.6667 332.333C51.6 335.267 57.7333 339.667 62.4 341.933C70.1333 345.8 71.6 346.067 84.1333 345.933C97.4667 345.8 97.6 345.8 104.4 350.467L111.333 355.133L106 354.067C103.067 353.533 98.2667 353 95.3333 353C89.0667 353.133 73.3333 356.333 73.3333 357.533C73.3333 357.933 76.2667 359.933 79.7333 361.933C87.3333 366.2 98.2667 368.2 106.667 366.733C124.267 363.8 124.933 363.8 129.867 367C134.4 369.8 134.667 370.2 134.667 377.133C134.667 381.133 133.867 385.8 132.933 387.4C129.867 392.733 130.933 395.533 136.667 397.533C144 400.2 185.867 400.333 195.733 397.933C202.267 396.2 202.667 395.8 202.667 391.8C202.667 389.4 202.133 387 201.467 386.2C200.8 385.533 200 381.933 199.467 378.067L198.667 371.267L204.933 367.667C211.6 363.933 213.467 363.933 225.333 367C228.8 367.8 234.267 368.2 238.267 367.667C245.067 366.867 261.333 359.8 261.333 357.8C261.333 356.2 246.933 353 240 353C236.667 353 231.6 353.533 228.667 354.067L223.333 355.267L230.4 350.467C237.467 345.8 237.467 345.8 251.2 345.933C263.467 346.2 265.467 345.933 272.133 342.733C276 340.733 282 336.333 285.333 332.867L291.333 326.733L278 327.267C267.467 327.667 263.333 328.467 258 331C254.4 332.733 250.8 334.467 250 334.733C248.4 335.4 262.4 322.733 264.933 321.267C266 320.6 270.8 319.533 275.733 318.867C285.733 317.4 295.867 313.133 302.4 307.667C306.8 304.067 316.4 291 315.467 290.067C315.2 289.8 310.933 290.467 306.133 291.533C296 293.933 288.4 297.533 280.667 303.533C275.067 307.933 275.2 307.4 283.467 297.133C287.467 292.067 291.2 289.4 299.867 285.267C316.667 277.267 324.533 269 329.867 253.933C332.4 247 331.467 246.867 320.267 252.333C315.2 255 309.467 259.4 304.8 264.467C300.667 268.867 297.333 272.2 297.333 271.933C297.333 271.667 299.067 267.4 301.333 262.733C304.267 255.933 307.067 252.467 313.333 247.267C326.133 236.467 329.733 231.533 332.8 219.667C334.667 212.733 335.2 204.333 333.867 204.333C332.267 204.333 320 215.267 317.067 219.267C315.467 221.533 312.8 226.733 311.2 230.867C307.733 239 307.2 237.667 309.467 226.733C310.267 222.867 311.2 218.467 311.467 216.867C311.733 215.4 314.4 211 317.333 207.4C325.867 196.6 329.333 187.933 329.333 177C329.333 171.8 328.933 166.333 328.533 164.733C327.733 161.933 327.467 162.067 322.933 167.4C317.467 173.933 312.133 184.867 311.867 189.667C311.867 191.533 311.333 194.2 310.667 195.667C309.867 197.533 309.467 195.133 309.467 188.333C309.333 180.2 310 177 312.8 171C317.867 160.467 318.667 146.333 314.667 135.933C313.067 131.8 311.333 128.333 310.8 128.333C308.8 128.333 303.733 146.733 303.733 153.933V161L302 156.333C301.2 153.8 300 147.8 299.467 143C298.267 133 295.333 125.533 289.867 119.133C285.867 114.333 276.4 107 274.267 107C272.267 107 274.4 121.267 277.333 127.933C278.8 131.267 283.733 137.8 288.4 142.733C292.933 147.667 297.733 153.933 299.067 156.733C302.4 164.067 301.867 164.467 297.467 157.8C292.933 151.133 285.333 145.533 276.667 142.467C269.733 140.2 269.467 140.733 273.333 149.4C277.467 158.333 282.133 163.667 292.667 170.867C298.133 174.733 302.933 178.467 303.467 179.267C304.667 181.133 308 199.4 307.333 200.2C307.067 200.333 306.133 198.2 305.333 195.133C303.333 187.4 296.4 179.267 288.267 174.6C284.4 172.467 280.933 170.867 280.667 171.267C279.733 172.2 283.467 184.733 286.533 190.867C288.267 194.067 293.467 200.733 298.133 205.8C307.467 215.8 307.867 217.133 305.333 233C304.533 238.867 304.4 239.133 304.133 234.867C303.733 224.333 300.133 216.2 292.267 208.467L284.667 201.133L284.267 208.333C283.6 218.333 287.2 230.733 293.467 240.333C300.667 251.4 300.933 253.4 296.667 264.733C294.8 270.067 293.333 275 293.467 275.8C294 278.467 293.2 280.067 291.2 280.867C289.333 281.533 289.2 281.4 290.667 279.667C293.067 276.733 293.867 260.067 292 252.333C290.4 245.8 282.133 232.467 280.933 234.6C280.667 235.133 279.6 240.067 278.667 245.4C276.933 256.2 277.6 263.4 281.467 274.6C285.2 285.667 284.8 288.6 278 298.6C274.667 303.4 272 307 272 306.733C272 306.467 272.933 303.267 274.133 299.8C277.067 291.4 276.133 276.333 272.267 269L269.6 263.667L266 271.267C261.067 282.2 259.867 290.867 261.6 304.733L263.2 316.467L255.067 324.6L246.933 332.733L251.2 324.2C254.8 316.733 255.333 314.6 255.2 305C255.067 299.133 254.4 292.867 253.733 291.133C252.533 288.067 252.267 288.333 246.933 296.333C239.867 306.867 237.333 315.4 237.333 328.867C237.333 334.867 236.8 340.2 236.267 341C235.067 342.6 224.133 351.4 221.333 353C220.267 353.533 220.667 352.6 222.133 350.867C227.733 344.6 231.067 335.933 231.733 326.067C232 320.867 231.867 314.867 231.467 312.867L230.533 309.267L226.133 313.533C217.2 322.2 212 336.6 212 352.467C212 358.6 211.733 359 206.267 362.333C203.067 364.2 200 365.667 199.6 365.667C199.067 365.667 198.667 363.8 198.667 361.667C198.667 359.4 198.133 356.6 197.333 355.267C196.667 354.067 195.6 343.267 195.067 331.4C194.267 314.467 194.4 309.533 195.733 309C197.6 308.333 197.867 301.533 196.133 299.533C195.467 298.867 194.133 285.8 193.333 270.467L191.6 242.6L194.8 240.2C197.467 238.2 197.733 237.4 196.533 235.4C194.133 231.533 187.467 228.333 180.133 227.4C172.4 226.467 171.6 224.6 177.2 221.267C181.067 219 185.333 211.8 185.333 207.667C185.333 203.267 180.8 195.933 176.533 193.4C172.667 191.133 172.133 190.2 171.733 183.267C171.467 179.133 171.333 175.4 171.6 175.133C171.733 174.867 190 193 212.133 215.533C234.267 238.067 252.8 256.2 253.333 256.067C253.867 255.8 258.133 252.2 262.8 247.933L271.333 240.2L248.667 217.933C236.133 205.667 215.867 185.8 203.6 173.8L181.2 151.8L222.933 110.067C245.867 87.1333 265.2 68.3333 265.867 68.3333C266.533 68.3333 268.267 67.2667 269.6 66.0667C272 63.9333 272.4 63.9333 276.933 66.3333C286.533 71.5333 309.6 96.8667 319.333 113C324.667 121.933 324.667 121.667 322 104.2C319.2 84.8667 312.267 68.2 300.8 52.7334C297.467 48.2 295.333 44.0667 296 43.6667C298.933 41.8 296.8 37.8 288.667 29.6667C280.8 21.9334 279.733 21.2667 277.333 22.7334C274.933 24.2 273.6 23.6667 266.533 18.8667C249.333 7.2667 233.467 1.66666 217.333 1.66666H207.333L212 4.46667C226.267 13.1333 236.4 20.7333 245.6 29.9333C251.333 35.5333 256 41 256 41.9333C256 43 254.533 45.2667 252.667 47C250.8 48.7334 249.467 50.8667 249.6 51.6667C249.867 52.4667 230.933 71.9334 207.6 94.7334L165.333 136.2L124 95.4C101.2 72.8667 82.8 53.9334 83.0667 53.1334C83.4667 52.3334 81.8667 49.6667 79.6 47.2667L75.4667 43L85.3333 32.8667C96.9333 21.2667 109.467 11.4 120.4 5.66666C124.533 3.39999 128 1.26667 128 0.866669C128 -0.333331 109.6 0.60001 102 2.33334ZM105.333 9.93332C94.4 17.1333 72 39 72 42.6C72 44.0667 73.4667 46.6 75.3333 48.3333L78.6667 51.5334L71.8667 58.4667L64.9333 65.5334L61.7333 63C59.2 61 57.7333 60.7334 55.2 61.6667C47.6 64.6 31.3333 81.5334 19.6 98.8667C13.7333 107.267 13.6 106.2 18.1333 91.1334C24.5333 69.6667 38.4 48.0667 55.0667 33.2667C71.3333 18.8667 82.2667 12.4667 98.6667 7.53333C113.6 2.99999 115.2 3.53332 105.333 9.93332ZM243.333 10.8667C268 20.3333 294.933 46.2 308.4 73C311.733 79.9334 319.067 101.667 318.267 102.467C318 102.733 315.733 100.2 313.2 96.6C306.933 87.9334 290.133 70.4667 282.533 65C276.133 60.2 271.067 59.1333 268.267 61.9333C267.067 63.1333 265.333 62.3334 260.8 57.8L254.933 52.0667L258.133 47.4C260.933 43.1334 261.067 42.4667 259.333 39.1334C256.8 34.2 239.467 17.6667 230 11L222 5.39999L227.867 6.20001C231.067 6.73335 238 8.73334 243.333 10.8667ZM55.7333 26.7334C55.0667 28.3334 40.5333 41.6667 39.4667 41.6667C38.9333 41.6667 41.6 38.0667 45.4667 33.6667C49.3333 29.2667 53.2 25.6667 54.2667 25.6667C55.3333 25.6667 56 26.0667 55.7333 26.7334ZM286.667 33C290.533 37 293.467 40.7334 292.933 41.1334C292 42.0667 277.333 28.4667 277.333 26.7334C277.333 24.3334 279.733 26.0667 286.667 33ZM161.467 137.8C162.533 138.333 162.933 139 162.667 139.267C162.267 139.533 159.733 141.8 156.933 144.333L152 148.867L110.667 107.667L69.3333 66.3333L74.2667 61.4L79.2 56.3333L119.467 96.6C141.6 118.6 160.533 137.267 161.467 137.8ZM260 62.7334C260.267 62.8667 252.4 71.1334 242.667 81C232.8 91 224.8 99.5333 224.933 100.067C224.933 100.6 191.733 134.467 151.067 175.4L76.9333 249.933L71.7333 244.733L66.5333 239.4L140.933 166.2C181.733 125.933 223.733 84.7334 234 74.7334L252.667 56.4667L256 59.4C257.867 61 259.6 62.4667 260 62.7334ZM248.667 79.1334C240.533 87.2667 232.267 95.1334 230 96.6C227.867 98.2 233.733 91.5334 243.333 81.8C252.8 72.2 261.2 64.3333 262 64.3333C262.667 64.3333 256.667 71 248.667 79.1334ZM287.067 121.133C291.467 126.333 294.267 132.067 295.333 137.933C296.667 144.867 294.267 145.133 288.667 138.733C282.4 131.4 278.933 124.733 277.867 117.533L276.933 111.8L280.4 114.467C282.267 116.067 285.2 119 287.067 121.133ZM56.8 118.333C55.3333 125.933 52.5333 131.267 46.6667 138.067C38.8 147 37.3333 145.133 41.6 131.133C43.0667 126.467 53.8667 113.667 56.2667 113.667C57.0667 113.667 57.3333 115.533 56.8 118.333ZM27.3333 147.533C29.3333 157.4 28.6667 170.067 26.1333 169.267C25.3333 169 23.4667 164.867 22.1333 159.933C19.8667 152.2 19.7333 150.333 21.2 143.533C23.3333 134.467 24.6667 135.4 27.3333 147.533ZM314 145.8C315.6 157.667 310.533 172.333 304.8 172.333C303.867 172.333 303.867 171.933 304.8 171.267C305.6 170.733 306.667 164.6 306.933 157C308 136.2 311.867 130.2 314 145.8ZM290.667 154.867C296.8 161.133 303.6 172.333 301.2 172.333C299.467 172.333 291.6 166.6 285.6 161.133C281.867 157.667 276 148.733 276 146.467C276 144.2 285.6 149.8 290.667 154.867ZM58.6667 147.667C58.6667 148.067 57.4667 150.733 56 153.533C53.6 158.467 40.6667 171 38.1333 171C37.0667 171 37.8667 169.667 43.2 162.867C44.8 161 43.7333 161.8 41.0667 164.733C38.2667 167.667 36.4 170.467 36.6667 171C37.4667 172.333 34.8 174.333 33.8667 173.267C32.9333 172.333 36.8 164.867 41.2 159.133C45.7333 153.267 58.6667 144.733 58.6667 147.667ZM222.133 197.8L264.933 239.667L259.467 245.4C256.533 248.467 253.733 250.867 253.333 250.733C252.933 250.467 233.467 231 210.133 207.267L167.467 164.333L172 159.667C174.533 157.133 177.2 155.133 178 155.4C178.667 155.667 198.533 174.733 222.133 197.8ZM16.5333 179.533C18.2667 183.267 20.5333 190.2 21.3333 195C23.8667 208.067 23.8667 208.067 26.1333 205.133C27.8667 202.6 28 202.6 28 206.2C28 208.733 27.4667 209.667 26.4 209.133C25.4667 208.733 23.7333 207.933 22.6667 207.533C20 206.6 14 197 11.3333 189.667C10.2667 186.6 9.33332 180.733 9.33332 176.733C9.33332 170.333 9.59999 169.533 11.3333 171C12.4 171.933 14.6667 175.667 16.5333 179.533ZM168 185C168 194.333 167.467 200.333 166.667 200.333C165.867 200.333 165.333 194.333 165.333 185C165.333 175.667 165.867 169.667 166.667 169.667C167.467 169.667 168 175.667 168 185ZM326.667 175.4C326.667 178.6 325.867 184.067 324.8 187.533C322.533 195.133 316.4 204.733 314.667 203.667C313.867 203.133 313.733 203.933 314.267 205.267C314.8 207.133 314.667 207.267 313.467 206.2C312.267 205.133 312.267 202.6 313.867 195.133C315.867 185.933 323.2 169.667 325.467 169.667C326.133 169.667 326.667 172.333 326.667 175.4ZM297.333 186.733C299.6 189.4 302.4 194.733 303.6 198.6C305.333 203.933 306.267 205.267 308.267 205C309.867 204.6 310.667 205.267 310.667 207.133C310.667 209.533 310.533 209.667 307.333 207.533C305.467 206.333 304 205.8 304 206.2C304 206.6 300.933 203.667 297.2 199.533C290.8 192.467 285.333 182.6 285.333 178.067C285.333 175.4 291.867 180.067 297.333 186.733ZM48.6667 182.867C47.7333 185.8 46.1333 189.533 45.2 191.133C43.2 194.867 32 207 30.5333 207C30 207 30.8 203.267 32.2667 198.733C34.4 192.733 36.8 188.733 41.4667 184.067C49.3333 176.2 51.2 175.933 48.6667 182.867ZM162.667 195.8C162.667 196.2 161.2 198.333 159.333 200.6C155.2 205.4 155.067 209.533 158.8 214.2C162.267 218.6 160.933 220.6 157.2 216.733C155.733 215.267 154.133 211.667 153.733 208.733C153.2 204.467 153.6 202.867 156.667 199.267C159.867 195.4 162.667 193.8 162.667 195.8ZM177.867 199.133C182.667 204.867 182.533 211 177.333 216.6C172.933 221.533 171.867 219.4 176 214.067C179.733 209.267 179.333 205.133 174.533 199.667C171.6 196.467 171.067 195 172.4 195C173.467 195 176 196.867 177.867 199.133ZM164.933 203.133C166 204.2 167.2 204.2 169.333 203C173.2 200.867 174.933 202.733 174.4 208.467C174 212.733 173.867 212.867 167.733 213C162.667 213 161.2 212.6 160.267 210.333C158.933 207.533 160.4 201.667 162.4 201.667C162.933 201.667 164.133 202.333 164.933 203.133ZM297.6 220.867C300.4 226.467 302.267 238.733 300.8 242.6C298.8 247.667 289.067 226.467 287.6 213.8L286.933 208.067L290.933 211.8C293.067 213.933 296.133 217.933 297.6 220.867ZM48 213.4C48 222.867 37.7333 245.533 34.4 243.533C30.9333 241.4 36.5333 221.8 42.9333 213.667C46.8 208.733 48 208.733 48 213.4ZM16.1333 222.467C21.3333 230.067 26.9333 242.467 26.4 245C26.1333 246.467 24 245.133 18.9333 240.333C11.7333 233.533 6.39999 223.933 4.79999 215.267L3.99999 210.867L7.99999 213.667C10.2667 215.267 13.8667 219.133 16.1333 222.467ZM330.133 216.6C329.6 219.667 327.6 225.133 325.733 228.6C321.867 235.667 311.333 246.2 309.333 245C307.2 243.667 316.4 225.4 323.067 218.067C326.667 214.2 329.867 211 330.267 211C330.667 211 330.667 213.533 330.133 216.6ZM169.6 221C170.133 225.133 169.733 225.667 167.067 225.667C164.533 225.667 164 225 164 221.933C164 218.2 166.267 214.6 168 215.667C168.667 216.067 169.333 218.467 169.6 221ZM188.4 233C194.933 236.333 194.667 237.667 187.733 236.067C184.533 235.4 172.8 235 161.733 235.267C150.533 235.533 141.333 235.533 141.333 235.4C141.333 234.733 147.733 232.2 152.667 230.867C159.867 228.867 182.8 230.2 188.4 233ZM187.2 239.133C187.6 239.533 188.533 250.2 189.2 263C190 275.8 190.933 289.133 191.333 292.467L192 298.733L187.067 297.533C180.4 296.067 154.133 296.067 147.467 297.533L142.267 298.867L143.2 289.933C143.6 285 144.4 271.533 144.933 260.067C145.733 240.2 145.867 239.133 148.533 238.467C152 237.667 186.4 238.333 187.2 239.133ZM54.1333 259.267C53.7333 262.733 52.6667 268.2 51.7333 271.267L50 277L49.2 267.667L48.5333 258.333L48.1333 269.667L47.7333 281L45.8667 273.667C43.4667 264.2 45.4667 252.333 50.5333 244.467L52.6667 241.133L53.7333 247.133C54.2667 250.333 54.5333 255.8 54.1333 259.267ZM286.8 247.533C290.267 255.4 291.333 267.533 289.333 275C288 280.067 287.6 280.6 286.4 278.467C282.4 271.267 279.733 249.933 282.133 243.8C283.333 240.6 283.867 241.133 286.8 247.533ZM18 258.067C26.9333 263.933 41.4667 280.733 39.4667 282.6C38.1333 283.933 27.6 278.467 22 273.533C17.7333 269.8 9.33332 257.4 9.33332 254.733C9.33332 253.4 13.2 254.867 18 258.067ZM323.867 259.133C319.6 267.533 310.933 276.2 302.4 280.467C298.133 282.6 294.667 283.8 294.667 283.133C294.667 280.733 306.4 266.067 311.467 262.067C316.667 258.067 323.867 253.8 325.733 253.667C326.267 253.667 325.467 256.067 323.867 259.133ZM272.533 287C272.667 293.933 271.867 299 270.133 303.533C267.733 309.667 267.467 309.933 265.733 307.533C263.067 304.067 264.133 284.333 267.333 276.467C269.733 270.733 269.867 270.733 271.067 273.8C271.867 275.533 272.4 281.533 272.533 287ZM68.9333 278.6C71.7333 286.067 72.2667 305.933 69.7333 308.467C67.6 310.6 64 301.933 63.0667 292.2C62.2667 283.8 63.6 272.333 65.3333 272.333C65.8667 272.333 67.6 275.133 68.9333 278.6ZM308.133 296.2C307.333 297.533 303.6 301.4 299.867 304.867C294.8 309.4 290.667 311.8 283.867 313.8C278.933 315.267 274.133 316.2 273.467 315.667C271.867 314.733 279.6 307.533 287.6 302.6C291.733 299.933 303.467 295.133 309.067 293.8C309.2 293.667 308.8 294.733 308.133 296.2ZM42.2667 299.667C49.7333 303.4 62.6667 313.133 62.6667 315.133C62.6667 316.867 54 315.267 46.8 312.2C39.2 308.867 33.0667 304.2 29.2 298.733L26.1333 294.6L30.8 295.533C33.3333 295.933 38.4 297.933 42.2667 299.667ZM90.6667 306.067C94 313.533 96 331.4 93.7333 332.733C92.9333 333.267 90.5333 329.533 88.1333 324.467C84.6667 317 84 313.8 84 305.667C84 294.333 85.7333 294.467 90.6667 306.067ZM250.667 317C248.267 325.267 242.667 334.333 241.2 332.2C238.133 327.4 241.867 309.533 247.733 301L251.333 295.667L251.733 303.667C252 308.067 251.467 314.067 250.667 317ZM185.467 300.467C190.533 301.4 194.667 302.733 194.667 303.533C194.667 304.6 186.4 305 167.333 305C147.067 305 140 304.6 140 303.4C140 302.467 142.8 301.4 146.4 301C149.867 300.467 153.333 299.933 154 299.667C157.2 298.6 176.933 299.133 185.467 300.467ZM154.133 327.933C153.733 339.533 152.667 349.533 152 350.2C151.067 351.133 150.667 348.333 150.667 342.333C150.667 326.067 152.4 307 153.733 307C154.667 307 154.8 314.2 154.133 327.933ZM169.333 310.467C169.333 313.267 169.867 313.8 172 313.267C174.533 312.6 174.667 313.267 174.667 328.067C174.667 336.733 175.067 345 175.467 346.6C176.267 349.533 176 349.667 167.333 349.667H158.267L159.2 343.533C159.6 340.067 160 331.8 160 325C160 313.267 160.133 312.6 162.667 313.267C164.8 313.8 165.333 313.267 165.333 310.467C165.333 308.333 166 307 167.333 307C168.667 307 169.333 308.333 169.333 310.467ZM183.2 319.267C184.4 337.133 184.267 351 182.667 351C182 351 181.333 348.733 181.333 345.933C181.333 343.267 180.933 333.4 180.4 323.933C179.467 304.2 181.733 300.067 183.2 319.267ZM146.133 317.267C145.733 322.333 145.067 332.2 144.533 339.267C144.133 346.733 143.2 352.333 142.4 352.333C141.467 352.333 141.333 347.4 141.867 337.933C143.2 315.933 144.133 308.333 145.6 308.333C146.4 308.333 146.667 311.667 146.133 317.267ZM192.267 329.933C192.533 341.933 192.667 351.933 192.4 352.2C190.533 354.6 189.467 347.267 189.067 329.267C188.667 313.667 188.933 308.333 190.133 308.333C191.333 308.333 191.867 314.467 192.267 329.933ZM115.867 330.333C118.8 338.333 120.667 352.333 118.667 352.333C116.8 352.333 111.067 343.267 108.667 336.467C107.6 333.267 106.667 327.267 106.667 323.133L106.8 315.667L110 319.667C111.867 321.8 114.4 326.6 115.867 330.333ZM228.933 324.733C228.133 333.667 224.667 343.133 219.867 349.533C216.4 354.2 214.533 353.8 215.333 348.6C215.6 346.6 216.267 342.2 216.667 338.867C217.467 332.733 226 316.333 228.4 316.333C229.2 316.333 229.467 319.667 228.933 324.733ZM65.8667 331.133C74.5333 332.6 88.1333 338.6 89.0667 341.4C89.4667 342.6 87.2 343 80.9333 343C74.1333 343 70.8 342.2 64.4 339C60 336.733 55.3333 333.8 54 332.333C51.6 329.8 51.7333 329.667 54.6667 329.667C56.4 329.667 61.4667 330.333 65.8667 331.133ZM282.667 330.867C282.667 332.6 272.8 339 267.067 341.133C261.067 343.267 243.467 343.667 244.667 341.667C246 339.4 258.133 333.8 265.733 331.667C273.6 329.533 282.667 329.133 282.667 330.867ZM191.6 355.267C193.6 356.2 195.467 358.067 195.733 359.267C196.133 361.267 195.6 361.4 191.733 360.2C183.6 357.667 157.467 357.267 147.333 359.4C142.267 360.467 137.867 361.267 137.6 361C137.467 360.867 137.6 359.8 138.133 358.6C138.933 356.467 143.867 354.6 152 353.133C158.667 351.933 188 353.533 191.6 355.267ZM112.533 359C117.333 360.467 117.6 360.733 115.2 362.067C110.8 364.6 92 364.067 86 361.133L80.6667 358.6L84.6667 357.533C89.8667 356.2 105.867 357 112.533 359ZM251.333 357.667L255.333 358.6L250 361C240.933 365.133 217.733 365.267 219.067 361.267C220.267 357.533 241.333 355.133 251.333 357.667ZM191.067 363.133L196 364.467V374.467C196 383.667 195.733 384.467 193.733 383.533C189.867 381.933 151.6 381.267 144.533 382.733C140.933 383.533 138 384.067 138 383.933C138 383.8 138.133 379.4 138.4 374.067C138.933 363.133 138.667 363.267 152.667 361.533C162 360.333 183.867 361.267 191.067 363.133ZM194 386.6C196.267 387.267 198.267 388.867 198.4 390.2C198.8 391.933 198.267 392.333 196.4 391.8C182.8 387.533 151.067 387.533 137.067 391.8C135.467 392.2 134.667 391.8 134.667 390.467C134.667 388.6 138.533 387.133 148 385.133C153.2 384.2 189.467 385.267 194 386.6ZM187.067 395.267C186.8 395.933 177.6 396.333 166.667 396.333C155.733 396.333 146.533 395.933 146.267 395.267C145.867 394.733 155.067 394.333 166.667 394.333C178.267 394.333 187.467 394.733 187.067 395.267Z" fill="#371A94" fill-opacity="0.25"/>
<path d="M117.733 101.8C125.867 111.267 146.667 131.533 147.467 130.733C147.733 130.467 139.467 121.8 129.067 111.667C117.733 100.467 113.2 96.4667 117.733 101.8Z" fill="#371A94" fill-opacity="0.25"/>
<path d="M113.867 204.733C90.9333 228.333 87.8667 232.467 108.667 212.067C119.6 201.267 128.267 192.2 127.867 191.8C127.467 191.4 121.2 197.267 113.867 204.733Z" fill="#371A94" fill-opacity="0.25"/>
<path d="M288.533 133.133C293.867 142.333 295.6 143.667 291.467 135.4C289.6 131.667 287.333 128.067 286.4 127.533C285.467 127 286.533 129.533 288.533 133.133Z" fill="#371A94" fill-opacity="0.25"/>
<path d="M44 133.933C39.7333 141.667 38.4 146.333 42.5333 139.533C46.5333 133 49.4667 127 48.6667 127C48.4 127 46.2667 130.2 44 133.933Z" fill="#371A94" fill-opacity="0.25"/>
<path d="M24.2666 155C24.1333 156.867 24.6666 160.733 25.2 163.667L26.4 169V164.333C26.4 161.8 25.8666 157.8 25.3333 155.667C24.4 152.067 24.2666 151.933 24.2666 155Z" fill="#371A94" fill-opacity="0.25"/>
<path d="M319.333 187.133C316.267 195.8 314.667 200.867 315.067 201.267C315.333 201.533 316.933 198.333 318.4 194.067C320 189.933 320.933 186.2 320.667 185.933C320.267 185.533 319.733 186.067 319.333 187.133Z" fill="#371A94" fill-opacity="0.25"/>
<path d="M298.133 196.067C300.8 200.6 303.2 204.333 303.6 204.333C304.533 204.333 296.933 191 295.067 189.4C294 188.6 295.333 191.533 298.133 196.067Z" fill="#371A94" fill-opacity="0.25"/>
<path d="M36.6667 195.267C34.1333 199.133 32 202.867 32 203.4C32 204.067 34 201.667 36.4 198.2C42.1333 189.667 42.9333 188.333 42.1333 188.333C41.7333 188.333 39.3333 191.533 36.6667 195.267Z" fill="#371A94" fill-opacity="0.25"/>
<path d="M293.333 223.8C293.333 225.533 299.067 240.333 299.467 239.933C300.133 239.4 294.667 223 293.867 223C293.6 223 293.333 223.4 293.333 223.8Z" fill="#371A94" fill-opacity="0.25"/>
<path d="M40.6666 224.333C39.3333 226.6 34.6666 240.733 35.2 241.267C35.4666 241.533 37.0666 237.533 38.9333 232.333C42.1333 223.533 42.5333 221.267 40.6666 224.333Z" fill="#371A94" fill-opacity="0.25"/>
<path d="M13.3333 227.267C13.3333 228.467 22.6666 241.667 23.6 241.667C24.4 241.667 19.8666 234.2 16.4 229.933C14.8 227.933 13.4666 226.733 13.3333 227.267Z" fill="#371A94" fill-opacity="0.25"/>
<path d="M318.4 230.6C311.333 241.533 310.4 243 310.933 243C312.133 243 322.933 226.867 322.4 226.2C322 225.933 320.267 227.933 318.4 230.6Z" fill="#371A94" fill-opacity="0.25"/>
<path d="M164.133 242.733C162.533 245.667 163.6 250.6 166 251.533C168.667 252.467 170.933 249 170.4 244.733C169.867 240.333 166.133 239 164.133 242.733Z" fill="#371A94" fill-opacity="0.25"/>
<path d="M149.467 244.6C148.8 246.333 148.8 248.867 149.333 250.2C149.867 251.667 149.733 255.533 149.2 258.867C147.733 268.2 146.667 296.067 147.867 293C148.533 291.533 149.467 282.067 150 271.933C150.667 258.733 151.467 253.4 152.8 252.6C154.533 251.667 155.333 248.6 154.933 243.933C154.533 240.6 150.8 241.133 149.467 244.6Z" fill="#371A94" fill-opacity="0.25"/>
<path d="M179.6 244.2C178.933 247.133 181.333 252.733 183.333 252.467C184.133 252.467 184.667 250.067 184.667 247.4C184.667 241.8 180.933 239.4 179.6 244.2Z" fill="#371A94" fill-opacity="0.25"/>
<path d="M184.4 265.667C184.4 271.933 184.8 281.133 185.333 286.333C186.267 295.4 186.267 295.4 186.4 281.667C186.4 273.933 186 264.6 185.333 261C184.4 255 184.4 255.4 184.4 265.667Z" fill="#371A94" fill-opacity="0.25"/>
<path d="M21.3333 266.6C21.3333 267.667 31.0666 276.467 36.5333 280.2C39.0666 281.8 39.0666 281.8 37.3333 280.067C30.2666 273 21.3333 265.533 21.3333 266.6Z" fill="#371A94" fill-opacity="0.25"/>
<path d="M305.733 273.133L298 280.6L304.8 275.133C311.6 269.667 315.6 265.667 314.267 265.667C313.867 265.667 310 269 305.733 273.133Z" fill="#371A94" fill-opacity="0.25"/>
<path d="M283.733 309.133C278.667 311.667 274.667 314.067 274.667 314.333C274.667 315 293.2 306.067 294.533 304.867C296.4 303.133 291.467 305.133 283.733 309.133Z" fill="#371A94" fill-opacity="0.25"/>
<path d="M41.3333 305C41.3333 305.8 56.8 313.667 58.2666 313.667C59.6 313.533 43.7333 304.333 42.4 304.333C41.7333 304.333 41.3333 304.6 41.3333 305Z" fill="#371A94" fill-opacity="0.25"/>
<path d="M88.8 316.333C89.3333 318.867 90.5333 323 91.4667 325.667L93.3333 330.333L92.5333 325.667C92 323.133 90.8 319 89.8667 316.333L88 311.667L88.8 316.333Z" fill="#371A94" fill-opacity="0.25"/>
<path d="M244.267 320.6C242.667 325.8 241.6 330.333 241.867 330.733C242.267 331 243.867 327 245.467 321.8C246.933 316.467 248 311.933 247.733 311.533C247.333 311.267 245.733 315.267 244.267 320.6Z" fill="#371A94" fill-opacity="0.25"/>
<path d="M171.2 331C171.2 340.2 171.333 343.933 171.6 339.267C171.867 334.733 171.867 327.267 171.6 322.6C171.333 318.067 171.2 321.8 171.2 331Z" fill="#371A94" fill-opacity="0.25"/>
<path d="M112.133 334.333C112.133 335.8 112.933 338.733 114 341C116.267 346.2 116.4 342.467 114 336.333C112.8 333.267 112.133 332.6 112.133 334.333Z" fill="#371A94" fill-opacity="0.25"/>
<path d="M220.267 339.933C218.667 344.067 217.6 347.8 217.867 348.067C218.133 348.333 219.733 345.133 221.2 340.867C222.8 336.733 223.867 333.133 223.6 332.733C223.333 332.467 221.733 335.667 220.267 339.933Z" fill="#371A94" fill-opacity="0.25"/>
<path d="M76 339C80.8 340.467 85.3333 341.533 86 341.533C88.2666 341.267 72.8 336.467 70 336.467C68.5333 336.467 71.2 337.667 76 339Z" fill="#371A94" fill-opacity="0.25"/>
<path d="M256 338.333C249.867 340.733 252.267 340.733 260.667 338.467C264.667 337.267 266 336.6 264 336.6C262.133 336.6 258.533 337.4 256 338.333Z" fill="#371A94" fill-opacity="0.25"/>
<path d="M102 360.467C108.8 361.8 114.267 361.8 108.667 360.333C106.533 359.8 102.933 359.267 100.667 359.267C97.3333 359.267 97.4667 359.533 102 360.467Z" fill="#371A94" fill-opacity="0.25"/>
<path d="M226 360.333L220.667 361.267H225.333C227.867 361.4 231.867 360.867 234 360.333C237.6 359.4 237.6 359.267 234.667 359.4C232.8 359.4 228.933 359.8 226 360.333Z" fill="#371A94" fill-opacity="0.25"/>
<path d="M189.333 372.067C189.333 378.067 189.867 380.2 191.333 380.867C193.2 381.533 193.333 380.333 193.067 373.4C192.8 368.333 192 365 191.067 364.6C189.733 364.2 189.333 366.333 189.333 372.067Z" fill="#371A94" fill-opacity="0.25"/>
</g>
<defs>
<clipPath id="clip0_1_200">
<rect width="333.674" height="399.313" fill="white" transform="translate(0.933319 0.325989)"/>
</clipPath>
</defs>
</svg>
