<svg width="334" height="400" viewBox="0 0 334 400" fill="none" xmlns="http://www.w3.org/2000/svg">
<g clip-path="url(#clip0_1_200)">
<path d="M101.067 2.00735C90.6667 4.27402 78 10.0074 67.0667 17.474C59.4667 22.8074 58 23.3407 54.6667 22.1407C51.3333 20.9407 50.4 21.3407 43.0667 28.674C34.5333 37.2074 32.6667 40.4074 34.9333 43.2074C36 44.5407 34.6667 47.6074 29.3333 55.6074C17.3333 73.474 9.6 96.274 9.73333 113.607L9.86667 120.674L13.3333 114.007C21.6 98.0074 50.4 65.3407 56.1333 65.3407C57.4667 65.3407 59.7333 66.5407 61.0667 68.0074C62.4 69.6074 64.2667 70.5407 65.0667 70.1407C66 69.874 85.0667 88.0074 107.6 110.541L148.4 151.474L115.467 184.141C97.2 202.141 77.4667 221.607 71.4667 227.341C65.3333 233.074 60.4 238.407 60.4 239.341C60.4 240.141 63.8667 244.141 68.1333 248.407L75.8667 256.007L106.667 225.074C123.6 208.007 142.933 188.274 149.6 181.341L161.6 168.674L161.733 179.607C161.733 190.407 161.6 190.674 157.867 192.541C152.4 195.474 149.733 200.274 149.733 207.474C149.733 213.074 150.267 214.274 155.067 218.807C158 221.607 160.4 224.407 160.4 225.074C160.4 225.741 157.333 226.674 153.6 227.074C146.267 228.007 139.6 231.207 137.2 235.074C136 237.074 136.267 238.007 138.533 239.741C141.2 242.007 141.2 242.407 139.6 268.007C138.667 282.274 137.467 297.474 137.067 301.607C136.267 307.474 136.4 309.341 137.733 309.341C140.533 309.341 138 344.141 134.133 359.607L133.067 363.874L127.733 360.941L122.4 357.874L121.6 345.874C120.933 336.941 119.867 332.007 117.2 326.541C113.2 318.141 105.067 308.141 103.6 309.741C103.067 310.274 102.533 315.741 102.533 321.874C102.4 332.141 102.8 333.741 107.2 342.407L112.133 351.874L105.867 347.207C102.533 344.541 99.2 341.474 98.5333 340.407C97.8667 339.207 97.2 332.807 97.0667 326.141C96.9333 317.474 96 311.874 94 306.674C90.8 298.407 83.3333 288.541 81.6 290.274C79.4667 292.407 78.6667 307.341 80.2667 314.807C81.2 318.807 83.3333 324.274 85.2 327.074C87.0667 330.007 88.4 332.541 88.1333 332.807C87.8667 333.074 84.2667 330.007 80.2667 325.874L73.0667 318.541V299.607C73.0667 281.607 72.9333 280.274 69.2 272.274C67.0667 267.741 64.9333 264.007 64.5333 264.007C64 264.007 62.4 267.207 61.0667 270.941C58 279.607 57.8667 293.074 60.8 300.941C62 304.141 62.8 306.674 62.5333 306.674C61.4667 306.674 49.7333 288.007 49.7333 286.274C49.7333 285.207 51.2 279.741 53.0667 274.141C55.2 267.474 56.4 260.941 56.4 255.207C56.4 246.941 54.2667 234.674 52.6667 234.674C51.4667 234.674 48.5333 239.074 44.8 246.007C41.0667 253.207 40.1333 263.207 42.1333 274.674C42.8 278.541 41.3333 275.741 38.4 266.941L33.6 253.207L37.2 246.941C46.4 230.941 48.2667 226.807 49.6 219.474C51.4667 209.474 51.4667 202.674 49.7333 202.674C48.9333 202.674 45.3333 205.607 41.8667 209.074C35.7333 215.207 33.6 219.474 30.2667 232.674C29.4667 236.141 29.0667 235.341 28.2667 227.474C27.0667 216.541 27.3333 215.741 37.8667 204.141C42.2667 199.474 47.2 192.541 48.9333 188.807C52 182.007 54.5333 172.007 53.0667 172.007C52.6667 172.007 50 173.207 47.2 174.541C40 178.274 32.8 186.274 29.7333 194.007L26.9333 200.674L27.7333 194.007C29.2 181.341 30.5333 179.074 40.5333 172.541C50.9333 165.607 56.4 159.341 61.0667 148.807C64.8 140.274 64.2667 139.741 54.6667 143.874C47.6 146.941 38.4 154.807 35.6 160.407C34.4 162.541 33.2 164.007 32.9333 163.607C31.3333 162.141 39.8667 148.274 46.5333 141.341C50.4 137.207 54.8 131.074 56.2667 127.874C59.0667 121.607 61.4667 106.674 59.8667 106.674C58.2667 106.674 48 114.141 44.8 117.474C39.6 123.207 36.4 131.341 35.0667 142.407C34.2667 148.407 33.0667 154.674 32.4 156.274C31.3333 158.941 31.2 158.674 31.2 154.274C31.0667 148.674 24.6667 128.007 22.9333 128.007C22.4 128.007 20.6667 131.474 19.0667 135.607C15.0667 146.407 15.8667 157.474 21.4667 170.407C25.6 179.607 25.7333 180.407 24.6667 189.741C23.7333 196.674 23.3333 197.874 23.2 194.007C22.9333 187.074 17.8667 174.807 12.2667 167.474C9.73333 164.274 7.6 161.741 7.33333 161.874C7.2 162.141 6.4 165.474 5.73333 169.474C3.33333 182.541 6.8 194.141 17.6 208.407C21.3333 213.341 23.2 217.607 24.2667 223.207C26.4 234.941 26 236.141 22.5333 228.407C19.0667 221.207 10.6667 211.207 4 206.407L0 203.474L0.666667 212.407C1.73333 225.607 6.4 234.007 18.6667 244.941C28.4 253.741 31.0667 257.607 35.6 268.674L37.7333 274.007L34.8 270.007C29.0667 262.274 21.0667 255.607 12.8 251.607C8.13333 249.474 4 248.007 3.6 248.407C2.4 249.474 7.86667 262.007 12.2667 268.407C17.0667 275.474 25.0667 281.341 35.0667 285.341C44.1333 288.941 45.8667 290.141 51.3333 297.341C58.4 306.674 58.4 307.207 52.1333 302.407C48.9333 299.874 43.3333 296.674 39.6 295.074C33.2 292.274 19.0667 289.074 19.0667 290.407C19.0667 290.674 21.7333 294.674 24.9333 299.207C32.8 310.141 41.8667 315.607 56.5333 318.141C68.5333 320.141 70.1333 320.941 79.0667 329.207L85.0667 334.674L77.0667 331.074C70.5333 328.141 66.6667 327.341 55.7333 326.941L42.4 326.407L47.7333 332.007C50.6667 334.941 56.8 339.341 61.4667 341.607C69.2 345.474 70.6667 345.741 83.2 345.607C96.5333 345.474 96.6667 345.474 103.467 350.141L110.4 354.807L105.067 353.741C102.133 353.207 97.3333 352.674 94.4 352.674C88.1333 352.807 72.4 356.007 72.4 357.207C72.4 357.607 75.3333 359.607 78.8 361.607C86.4 365.874 97.3333 367.874 105.733 366.407C123.333 363.474 124 363.474 128.933 366.674C133.467 369.474 133.733 369.874 133.733 376.807C133.733 380.807 132.933 385.474 132 387.074C128.933 392.407 130 395.207 135.733 397.207C143.067 399.874 184.933 400.007 194.8 397.607C201.333 395.874 201.733 395.474 201.733 391.474C201.733 389.074 201.2 386.674 200.533 385.874C199.867 385.207 199.067 381.607 198.533 377.741L197.733 370.941L204 367.341C210.667 363.607 212.533 363.607 224.4 366.674C227.867 367.474 233.333 367.874 237.333 367.341C244.133 366.541 260.4 359.474 260.4 357.474C260.4 355.874 246 352.674 239.067 352.674C235.733 352.674 230.667 353.207 227.733 353.741L222.4 354.941L229.467 350.141C236.533 345.474 236.533 345.474 250.267 345.607C262.533 345.874 264.533 345.607 271.2 342.407C275.067 340.407 281.067 336.007 284.4 332.541L290.4 326.407L277.067 326.941C266.533 327.341 262.4 328.141 257.067 330.674C253.467 332.407 249.867 334.141 249.067 334.407C247.467 335.074 261.467 322.407 264 320.941C265.067 320.274 269.867 319.207 274.8 318.541C284.8 317.074 294.933 312.807 301.467 307.341C305.867 303.741 315.467 290.674 314.533 289.741C314.267 289.474 310 290.141 305.2 291.207C295.067 293.607 287.467 297.207 279.733 303.207C274.133 307.607 274.267 307.074 282.533 296.807C286.533 291.741 290.267 289.074 298.933 284.941C315.733 276.941 323.6 268.674 328.933 253.607C331.467 246.674 330.533 246.541 319.333 252.007C314.267 254.674 308.533 259.074 303.867 264.141C299.733 268.541 296.4 271.874 296.4 271.607C296.4 271.341 298.133 267.074 300.4 262.407C303.333 255.607 306.133 252.141 312.4 246.941C325.2 236.141 328.8 231.207 331.867 219.341C333.733 212.407 334.267 204.007 332.933 204.007C331.333 204.007 319.067 214.941 316.133 218.941C314.533 221.207 311.867 226.407 310.267 230.541C306.8 238.674 306.267 237.341 308.533 226.407C309.333 222.541 310.267 218.141 310.533 216.541C310.8 215.074 313.467 210.674 316.4 207.074C324.933 196.274 328.4 187.607 328.4 176.674C328.4 171.474 328 166.007 327.6 164.407C326.8 161.607 326.533 161.741 322 167.074C316.533 173.607 311.2 184.541 310.933 189.341C310.933 191.207 310.4 193.874 309.733 195.341C308.933 197.207 308.533 194.807 308.533 188.007C308.4 179.874 309.067 176.674 311.867 170.674C316.933 160.141 317.733 146.007 313.733 135.607C312.133 131.474 310.4 128.007 309.867 128.007C307.867 128.007 302.8 146.407 302.8 153.607V160.674L301.067 156.007C300.267 153.474 299.067 147.474 298.533 142.674C297.333 132.674 294.4 125.207 288.933 118.807C284.933 114.007 275.467 106.674 273.333 106.674C271.333 106.674 273.467 120.941 276.4 127.607C277.867 130.941 282.8 137.474 287.467 142.407C292 147.341 296.8 153.607 298.133 156.407C301.467 163.741 300.933 164.141 296.533 157.474C292 150.807 284.4 145.207 275.733 142.141C268.8 139.874 268.533 140.407 272.4 149.074C276.533 158.007 281.2 163.341 291.733 170.541C297.2 174.407 302 178.141 302.533 178.941C303.733 180.807 307.067 199.074 306.4 199.874C306.133 200.007 305.2 197.874 304.4 194.807C302.4 187.074 295.467 178.941 287.333 174.274C283.467 172.141 280 170.541 279.733 170.941C278.8 171.874 282.533 184.407 285.6 190.541C287.333 193.741 292.533 200.407 297.2 205.474C306.533 215.474 306.933 216.807 304.4 232.674C303.6 238.541 303.467 238.807 303.2 234.541C302.8 224.007 299.2 215.874 291.333 208.141L283.733 200.807L283.333 208.007C282.667 218.007 286.267 230.407 292.533 240.007C299.733 251.074 300 253.074 295.733 264.407C293.867 269.741 292.4 274.674 292.533 275.474C293.067 278.141 292.267 279.741 290.267 280.541C288.4 281.207 288.267 281.074 289.733 279.341C292.133 276.407 292.933 259.741 291.067 252.007C289.467 245.474 281.2 232.141 280 234.274C279.733 234.807 278.667 239.741 277.733 245.074C276 255.874 276.667 263.074 280.533 274.274C284.267 285.341 283.867 288.274 277.067 298.274C273.733 303.074 271.067 306.674 271.067 306.407C271.067 306.141 272 302.941 273.2 299.474C276.133 291.074 275.2 276.007 271.333 268.674L268.667 263.341L265.067 270.941C260.133 281.874 258.933 290.541 260.667 304.407L262.267 316.141L254.133 324.274L246 332.407L250.267 323.874C253.867 316.407 254.4 314.274 254.267 304.674C254.133 298.807 253.467 292.541 252.8 290.807C251.6 287.741 251.333 288.007 246 296.007C238.933 306.541 236.4 315.074 236.4 328.541C236.4 334.541 235.867 339.874 235.333 340.674C234.133 342.274 223.2 351.074 220.4 352.674C219.333 353.207 219.733 352.274 221.2 350.541C226.8 344.274 230.133 335.607 230.8 325.741C231.067 320.541 230.933 314.541 230.533 312.541L229.6 308.941L225.2 313.207C216.267 321.874 211.067 336.274 211.067 352.141C211.067 358.274 210.8 358.674 205.333 362.007C202.133 363.874 199.067 365.341 198.667 365.341C198.133 365.341 197.733 363.474 197.733 361.341C197.733 359.074 197.2 356.274 196.4 354.941C195.733 353.741 194.667 342.941 194.133 331.074C193.333 314.141 193.467 309.207 194.8 308.674C196.667 308.007 196.933 301.207 195.2 299.207C194.533 298.541 193.2 285.474 192.4 270.141L190.667 242.274L193.867 239.874C196.533 237.874 196.8 237.074 195.6 235.074C193.2 231.207 186.533 228.007 179.2 227.074C171.467 226.141 170.667 224.274 176.267 220.941C180.133 218.674 184.4 211.474 184.4 207.341C184.4 202.941 179.867 195.607 175.6 193.074C171.733 190.807 171.2 189.874 170.8 182.941C170.533 178.807 170.4 175.074 170.667 174.807C170.8 174.541 189.067 192.674 211.2 215.207C233.333 237.741 251.867 255.874 252.4 255.741C252.933 255.474 257.2 251.874 261.867 247.607L270.4 239.874L247.733 217.607C235.2 205.341 214.933 185.474 202.667 173.474L180.267 151.474L222 109.741C244.933 86.8074 264.267 68.0074 264.933 68.0074C265.6 68.0074 267.333 66.9407 268.667 65.7407C271.067 63.6074 271.467 63.6074 276 66.0074C285.6 71.2074 308.667 96.5407 318.4 112.674C323.733 121.607 323.733 121.341 321.067 103.874C318.267 84.5407 311.333 67.874 299.867 52.4074C296.533 47.874 294.4 43.7407 295.067 43.3407C298 41.474 295.867 37.474 287.733 29.3407C279.867 21.6074 278.8 20.9407 276.4 22.4074C274 23.874 272.667 23.3407 265.6 18.5407C248.4 6.94071 232.533 1.34067 216.4 1.34067H206.4L211.067 4.14069C225.333 12.8074 235.467 20.4074 244.667 29.6074C250.4 35.2074 255.067 40.674 255.067 41.6074C255.067 42.674 253.6 44.9407 251.733 46.674C249.867 48.4074 248.533 50.5407 248.667 51.3407C248.933 52.1407 230 71.6074 206.667 94.4074L164.4 135.874L123.067 95.074C100.267 72.5407 81.8667 53.6074 82.1333 52.8074C82.5333 52.0074 80.9333 49.3407 78.6667 46.9407L74.5333 42.674L84.4 32.5407C96 20.9407 108.533 11.074 119.467 5.34067C123.6 3.074 127.067 0.94068 127.067 0.54068C127.067 -0.65932 108.667 0.274021 101.067 2.00735ZM104.4 9.60733C93.4667 16.8073 71.0667 38.674 71.0667 42.274C71.0667 43.7407 72.5333 46.274 74.4 48.0074L77.7333 51.2074L70.9333 58.1407L64 65.2074L60.8 62.674C58.2667 60.674 56.8 60.4074 54.2667 61.3407C46.6667 64.274 30.4 81.2074 18.6667 98.5407C12.8 106.941 12.6667 105.874 17.2 90.8074C23.6 69.3407 37.4667 47.7407 54.1333 32.9407C70.4 18.5407 81.3333 12.1407 97.7333 7.20734C112.667 2.674 114.267 3.20733 104.4 9.60733ZM242.4 10.5407C267.067 20.0073 294 45.874 307.467 72.674C310.8 79.6074 318.133 101.341 317.333 102.141C317.067 102.407 314.8 99.874 312.267 96.274C306 87.6074 289.2 70.1407 281.6 64.674C275.2 59.874 270.133 58.8074 267.333 61.6074C266.133 62.8074 264.4 62.0074 259.867 57.474L254 51.7407L257.2 47.074C260 42.8074 260.133 42.1407 258.4 38.8074C255.867 33.874 238.533 17.3407 229.067 10.674L221.067 5.07401L226.933 5.87402C230.133 6.40736 237.067 8.40735 242.4 10.5407ZM54.8 26.4074C54.1333 28.0074 39.6 41.3407 38.5333 41.3407C38 41.3407 40.6667 37.7407 44.5333 33.3407C48.4 28.9407 52.2667 25.3407 53.3333 25.3407C54.4 25.3407 55.0667 25.7407 54.8 26.4074ZM285.733 32.674C289.6 36.674 292.533 40.4074 292 40.8074C291.067 41.7407 276.4 28.1407 276.4 26.4074C276.4 24.0074 278.8 25.7407 285.733 32.674ZM160.533 137.474C161.6 138.007 162 138.674 161.733 138.941C161.333 139.207 158.8 141.474 156 144.007L151.067 148.541L109.733 107.341L68.4 66.0074L73.3333 61.074L78.2667 56.0074L118.533 96.274C140.667 118.274 159.6 136.941 160.533 137.474ZM259.067 62.4074C259.333 62.5407 251.467 70.8074 241.733 80.674C231.867 90.674 223.867 99.2074 224 99.7407C224 100.274 190.8 134.141 150.133 175.074L76 249.607L70.8 244.407L65.6 239.074L140 165.874C180.8 125.607 222.8 84.4074 233.067 74.4074L251.733 56.1407L255.067 59.074C256.933 60.674 258.667 62.1407 259.067 62.4074ZM247.733 78.8074C239.6 86.9407 231.333 94.8074 229.067 96.274C226.933 97.874 232.8 91.2074 242.4 81.474C251.867 71.874 260.267 64.0074 261.067 64.0074C261.733 64.0074 255.733 70.674 247.733 78.8074ZM286.133 120.807C290.533 126.007 293.333 131.741 294.4 137.607C295.733 144.541 293.333 144.807 287.733 138.407C281.467 131.074 278 124.407 276.933 117.207L276 111.474L279.467 114.141C281.333 115.741 284.267 118.674 286.133 120.807ZM55.8667 118.007C54.4 125.607 51.6 130.941 45.7333 137.741C37.8667 146.674 36.4 144.807 40.6667 130.807C42.1333 126.141 52.9333 113.341 55.3333 113.341C56.1333 113.341 56.4 115.207 55.8667 118.007ZM26.4 147.207C28.4 157.074 27.7333 169.741 25.2 168.941C24.4 168.674 22.5333 164.541 21.2 159.607C18.9333 151.874 18.8 150.007 20.2667 143.207C22.4 134.141 23.7333 135.074 26.4 147.207ZM313.067 145.474C314.667 157.341 309.6 172.007 303.867 172.007C302.933 172.007 302.933 171.607 303.867 170.941C304.667 170.407 305.733 164.274 306 156.674C307.067 135.874 310.933 129.874 313.067 145.474ZM289.733 154.541C295.867 160.807 302.667 172.007 300.267 172.007C298.533 172.007 290.667 166.274 284.667 160.807C280.933 157.341 275.067 148.407 275.067 146.141C275.067 143.874 284.667 149.474 289.733 154.541ZM57.7333 147.341C57.7333 147.741 56.5333 150.407 55.0667 153.207C52.6667 158.141 39.7333 170.674 37.2 170.674C36.1333 170.674 36.9333 169.341 42.2667 162.541C43.8667 160.674 42.8 161.474 40.1333 164.407C37.3333 167.341 35.4667 170.141 35.7333 170.674C36.5333 172.007 33.8667 174.007 32.9333 172.941C32 172.007 35.8667 164.541 40.2667 158.807C44.8 152.941 57.7333 144.407 57.7333 147.341ZM221.2 197.474L264 239.341L258.533 245.074C255.6 248.141 252.8 250.541 252.4 250.407C252 250.141 232.533 230.674 209.2 206.941L166.533 164.007L171.067 159.341C173.6 156.807 176.267 154.807 177.067 155.074C177.733 155.341 197.6 174.407 221.2 197.474ZM15.6 179.207C17.3333 182.941 19.6 189.874 20.4 194.674C22.9333 207.741 22.9333 207.741 25.2 204.807C26.9333 202.274 27.0667 202.274 27.0667 205.874C27.0667 208.407 26.5333 209.341 25.4667 208.807C24.5333 208.407 22.8 207.607 21.7333 207.207C19.0667 206.274 13.0667 196.674 10.4 189.341C9.33333 186.274 8.4 180.407 8.4 176.407C8.4 170.007 8.66667 169.207 10.4 170.674C11.4667 171.607 13.7333 175.341 15.6 179.207ZM167.067 184.674C167.067 194.007 166.533 200.007 165.733 200.007C164.933 200.007 164.4 194.007 164.4 184.674C164.4 175.341 164.933 169.341 165.733 169.341C166.533 169.341 167.067 175.341 167.067 184.674ZM325.733 175.074C325.733 178.274 324.933 183.741 323.867 187.207C321.6 194.807 315.467 204.407 313.733 203.341C312.933 202.807 312.8 203.607 313.333 204.941C313.867 206.807 313.733 206.941 312.533 205.874C311.333 204.807 311.333 202.274 312.933 194.807C314.933 185.607 322.267 169.341 324.533 169.341C325.2 169.341 325.733 172.007 325.733 175.074ZM296.4 186.407C298.667 189.074 301.467 194.407 302.667 198.274C304.4 203.607 305.333 204.941 307.333 204.674C308.933 204.274 309.733 204.941 309.733 206.807C309.733 209.207 309.6 209.341 306.4 207.207C304.533 206.007 303.067 205.474 303.067 205.874C303.067 206.274 300 203.341 296.267 199.207C289.867 192.141 284.4 182.274 284.4 177.741C284.4 175.074 290.933 179.741 296.4 186.407ZM47.7333 182.541C46.8 185.474 45.2 189.207 44.2667 190.807C42.2667 194.541 31.0667 206.674 29.6 206.674C29.0667 206.674 29.8667 202.941 31.3333 198.407C33.4667 192.407 35.8667 188.407 40.5333 183.741C48.4 175.874 50.2667 175.607 47.7333 182.541ZM161.733 195.474C161.733 195.874 160.267 198.007 158.4 200.274C154.267 205.074 154.133 209.207 157.867 213.874C161.333 218.274 160 220.274 156.267 216.407C154.8 214.941 153.2 211.341 152.8 208.407C152.267 204.141 152.667 202.541 155.733 198.941C158.933 195.074 161.733 193.474 161.733 195.474ZM176.933 198.807C181.733 204.541 181.6 210.674 176.4 216.274C172 221.207 170.933 219.074 175.067 213.741C178.8 208.941 178.4 204.807 173.6 199.341C170.667 196.141 170.133 194.674 171.467 194.674C172.533 194.674 175.067 196.541 176.933 198.807ZM164 202.807C165.067 203.874 166.267 203.874 168.4 202.674C172.267 200.541 174 202.407 173.467 208.141C173.067 212.407 172.933 212.541 166.8 212.674C161.733 212.674 160.267 212.274 159.333 210.007C158 207.207 159.467 201.341 161.467 201.341C162 201.341 163.2 202.007 164 202.807ZM296.667 220.541C299.467 226.141 301.333 238.407 299.867 242.274C297.867 247.341 288.133 226.141 286.667 213.474L286 207.741L290 211.474C292.133 213.607 295.2 217.607 296.667 220.541ZM47.0667 213.074C47.0667 222.541 36.8 245.207 33.4667 243.207C30 241.074 35.6 221.474 42 213.341C45.8667 208.407 47.0667 208.407 47.0667 213.074ZM15.2 222.141C20.4 229.741 26 242.141 25.4667 244.674C25.2 246.141 23.0667 244.807 18 240.007C10.8 233.207 5.46667 223.607 3.86667 214.941L3.06667 210.541L7.06667 213.341C9.33333 214.941 12.9333 218.807 15.2 222.141ZM329.2 216.274C328.667 219.341 326.667 224.807 324.8 228.274C320.933 235.341 310.4 245.874 308.4 244.674C306.267 243.341 315.467 225.074 322.133 217.741C325.733 213.874 328.933 210.674 329.333 210.674C329.733 210.674 329.733 213.207 329.2 216.274ZM168.667 220.674C169.2 224.807 168.8 225.341 166.133 225.341C163.6 225.341 163.067 224.674 163.067 221.607C163.067 217.874 165.333 214.274 167.067 215.341C167.733 215.741 168.4 218.141 168.667 220.674ZM187.467 232.674C194 236.007 193.733 237.341 186.8 235.741C183.6 235.074 171.867 234.674 160.8 234.941C149.6 235.207 140.4 235.207 140.4 235.074C140.4 234.407 146.8 231.874 151.733 230.541C158.933 228.541 181.867 229.874 187.467 232.674ZM186.267 238.807C186.667 239.207 187.6 249.874 188.267 262.674C189.067 275.474 190 288.807 190.4 292.141L191.067 298.407L186.133 297.207C179.467 295.741 153.2 295.741 146.533 297.207L141.333 298.541L142.267 289.607C142.667 284.674 143.467 271.207 144 259.741C144.8 239.874 144.933 238.807 147.6 238.141C151.067 237.341 185.467 238.007 186.267 238.807ZM53.2 258.941C52.8 262.407 51.7333 267.874 50.8 270.941L49.0667 276.674L48.2667 267.341L47.6 258.007L47.2 269.341L46.8 280.674L44.9333 273.341C42.5333 263.874 44.5333 252.007 49.6 244.141L51.7333 240.807L52.8 246.807C53.3333 250.007 53.6 255.474 53.2 258.941ZM285.867 247.207C289.333 255.074 290.4 267.207 288.4 274.674C287.067 279.741 286.667 280.274 285.467 278.141C281.467 270.941 278.8 249.607 281.2 243.474C282.4 240.274 282.933 240.807 285.867 247.207ZM17.0667 257.741C26 263.607 40.5333 280.407 38.5333 282.274C37.2 283.607 26.6667 278.141 21.0667 273.207C16.8 269.474 8.4 257.074 8.4 254.407C8.4 253.074 12.2667 254.541 17.0667 257.741ZM322.933 258.807C318.667 267.207 310 275.874 301.467 280.141C297.2 282.274 293.733 283.474 293.733 282.807C293.733 280.407 305.467 265.741 310.533 261.741C315.733 257.741 322.933 253.474 324.8 253.341C325.333 253.341 324.533 255.741 322.933 258.807ZM271.6 286.674C271.733 293.607 270.933 298.674 269.2 303.207C266.8 309.341 266.533 309.607 264.8 307.207C262.133 303.741 263.2 284.007 266.4 276.141C268.8 270.407 268.933 270.407 270.133 273.474C270.933 275.207 271.467 281.207 271.6 286.674ZM68 278.274C70.8 285.741 71.3333 305.607 68.8 308.141C66.6667 310.274 63.0667 301.607 62.1333 291.874C61.3333 283.474 62.6667 272.007 64.4 272.007C64.9333 272.007 66.6667 274.807 68 278.274ZM307.2 295.874C306.4 297.207 302.667 301.074 298.933 304.541C293.867 309.074 289.733 311.474 282.933 313.474C278 314.941 273.2 315.874 272.533 315.341C270.933 314.407 278.667 307.207 286.667 302.274C290.8 299.607 302.533 294.807 308.133 293.474C308.267 293.341 307.867 294.407 307.2 295.874ZM41.3333 299.341C48.8 303.074 61.7333 312.807 61.7333 314.807C61.7333 316.541 53.0667 314.941 45.8667 311.874C38.2667 308.541 32.1333 303.874 28.2667 298.407L25.2 294.274L29.8667 295.207C32.4 295.607 37.4667 297.607 41.3333 299.341ZM89.7333 305.741C93.0667 313.207 95.0667 331.074 92.8 332.407C92 332.941 89.6 329.207 87.2 324.141C83.7333 316.674 83.0667 313.474 83.0667 305.341C83.0667 294.007 84.8 294.141 89.7333 305.741ZM249.733 316.674C247.333 324.941 241.733 334.007 240.267 331.874C237.2 327.074 240.933 309.207 246.8 300.674L250.4 295.341L250.8 303.341C251.067 307.741 250.533 313.741 249.733 316.674ZM184.533 300.141C189.6 301.074 193.733 302.407 193.733 303.207C193.733 304.274 185.467 304.674 166.4 304.674C146.133 304.674 139.067 304.274 139.067 303.074C139.067 302.141 141.867 301.074 145.467 300.674C148.933 300.141 152.4 299.607 153.067 299.341C156.267 298.274 176 298.807 184.533 300.141ZM153.2 327.607C152.8 339.207 151.733 349.207 151.067 349.874C150.133 350.807 149.733 348.007 149.733 342.007C149.733 325.741 151.467 306.674 152.8 306.674C153.733 306.674 153.867 313.874 153.2 327.607ZM168.4 310.141C168.4 312.941 168.933 313.474 171.067 312.941C173.6 312.274 173.733 312.941 173.733 327.741C173.733 336.407 174.133 344.674 174.533 346.274C175.333 349.207 175.067 349.341 166.4 349.341H157.333L158.267 343.207C158.667 339.741 159.067 331.474 159.067 324.674C159.067 312.941 159.2 312.274 161.733 312.941C163.867 313.474 164.4 312.941 164.4 310.141C164.4 308.007 165.067 306.674 166.4 306.674C167.733 306.674 168.4 308.007 168.4 310.141ZM182.267 318.941C183.467 336.807 183.333 350.674 181.733 350.674C181.067 350.674 180.4 348.407 180.4 345.607C180.4 342.941 180 333.074 179.467 323.607C178.533 303.874 180.8 299.741 182.267 318.941ZM145.2 316.941C144.8 322.007 144.133 331.874 143.6 338.941C143.2 346.407 142.267 352.007 141.467 352.007C140.533 352.007 140.4 347.074 140.933 337.607C142.267 315.607 143.2 308.007 144.667 308.007C145.467 308.007 145.733 311.341 145.2 316.941ZM191.333 329.607C191.6 341.607 191.733 351.607 191.467 351.874C189.6 354.274 188.533 346.941 188.133 328.941C187.733 313.341 188 308.007 189.2 308.007C190.4 308.007 190.933 314.141 191.333 329.607ZM114.933 330.007C117.867 338.007 119.733 352.007 117.733 352.007C115.867 352.007 110.133 342.941 107.733 336.141C106.667 332.941 105.733 326.941 105.733 322.807L105.867 315.341L109.067 319.341C110.933 321.474 113.467 326.274 114.933 330.007ZM228 324.407C227.2 333.341 223.733 342.807 218.933 349.207C215.467 353.874 213.6 353.474 214.4 348.274C214.667 346.274 215.333 341.874 215.733 338.541C216.533 332.407 225.067 316.007 227.467 316.007C228.267 316.007 228.533 319.341 228 324.407ZM64.9333 330.807C73.6 332.274 87.2 338.274 88.1333 341.074C88.5333 342.274 86.2667 342.674 80 342.674C73.2 342.674 69.8667 341.874 63.4667 338.674C59.0667 336.407 54.4 333.474 53.0667 332.007C50.6667 329.474 50.8 329.341 53.7333 329.341C55.4667 329.341 60.5333 330.007 64.9333 330.807ZM281.733 330.541C281.733 332.274 271.867 338.674 266.133 340.807C260.133 342.941 242.533 343.341 243.733 341.341C245.067 339.074 257.2 333.474 264.8 331.341C272.667 329.207 281.733 328.807 281.733 330.541ZM190.667 354.941C192.667 355.874 194.533 357.741 194.8 358.941C195.2 360.941 194.667 361.074 190.8 359.874C182.667 357.341 156.533 356.941 146.4 359.074C141.333 360.141 136.933 360.941 136.667 360.674C136.533 360.541 136.667 359.474 137.2 358.274C138 356.141 142.933 354.274 151.067 352.807C157.733 351.607 187.067 353.207 190.667 354.941ZM111.6 358.674C116.4 360.141 116.667 360.407 114.267 361.741C109.867 364.274 91.0667 363.741 85.0667 360.807L79.7333 358.274L83.7333 357.207C88.9333 355.874 104.933 356.674 111.6 358.674ZM250.4 357.341L254.4 358.274L249.067 360.674C240 364.807 216.8 364.941 218.133 360.941C219.333 357.207 240.4 354.807 250.4 357.341ZM190.133 362.807L195.067 364.141V374.141C195.067 383.341 194.8 384.141 192.8 383.207C188.933 381.607 150.667 380.941 143.6 382.407C140 383.207 137.067 383.741 137.067 383.607C137.067 383.474 137.2 379.074 137.467 373.741C138 362.807 137.733 362.941 151.733 361.207C161.067 360.007 182.933 360.941 190.133 362.807ZM193.067 386.274C195.333 386.941 197.333 388.541 197.467 389.874C197.867 391.607 197.333 392.007 195.467 391.474C181.867 387.207 150.133 387.207 136.133 391.474C134.533 391.874 133.733 391.474 133.733 390.141C133.733 388.274 137.6 386.807 147.067 384.807C152.267 383.874 188.533 384.941 193.067 386.274ZM186.133 394.941C185.867 395.607 176.667 396.007 165.733 396.007C154.8 396.007 145.6 395.607 145.333 394.941C144.933 394.407 154.133 394.007 165.733 394.007C177.333 394.007 186.533 394.407 186.133 394.941Z" fill="#371A94" fill-opacity="0.2"/>
<path d="M116.8 101.474C124.933 110.941 145.733 131.207 146.533 130.407C146.8 130.141 138.533 121.474 128.133 111.341C116.8 100.141 112.267 96.1407 116.8 101.474Z" fill="#371A94" fill-opacity="0.2"/>
<path d="M112.933 204.407C90 228.007 86.9333 232.141 107.733 211.741C118.667 200.941 127.333 191.874 126.933 191.474C126.533 191.074 120.267 196.941 112.933 204.407Z" fill="#371A94" fill-opacity="0.2"/>
<path d="M287.6 132.807C292.933 142.007 294.667 143.341 290.533 135.074C288.667 131.341 286.4 127.741 285.467 127.207C284.533 126.674 285.6 129.207 287.6 132.807Z" fill="#371A94" fill-opacity="0.2"/>
<path d="M43.0667 133.607C38.8 141.341 37.4667 146.007 41.6 139.207C45.6 132.674 48.5333 126.674 47.7333 126.674C47.4667 126.674 45.3333 129.874 43.0667 133.607Z" fill="#371A94" fill-opacity="0.2"/>
<path d="M23.3333 154.674C23.2 156.541 23.7333 160.407 24.2667 163.341L25.4667 168.674V164.007C25.4667 161.474 24.9333 157.474 24.4 155.341C23.4667 151.741 23.3333 151.607 23.3333 154.674Z" fill="#371A94" fill-opacity="0.2"/>
<path d="M318.4 186.807C315.333 195.474 313.733 200.541 314.133 200.941C314.4 201.207 316 198.007 317.467 193.741C319.067 189.607 320 185.874 319.733 185.607C319.333 185.207 318.8 185.741 318.4 186.807Z" fill="#371A94" fill-opacity="0.2"/>
<path d="M297.2 195.741C299.867 200.274 302.267 204.007 302.667 204.007C303.6 204.007 296 190.674 294.133 189.074C293.067 188.274 294.4 191.207 297.2 195.741Z" fill="#371A94" fill-opacity="0.2"/>
<path d="M35.7333 194.941C33.2 198.807 31.0667 202.541 31.0667 203.074C31.0667 203.741 33.0667 201.341 35.4667 197.874C41.2 189.341 42 188.007 41.2 188.007C40.8 188.007 38.4 191.207 35.7333 194.941Z" fill="#371A94" fill-opacity="0.2"/>
<path d="M292.4 223.474C292.4 225.207 298.133 240.007 298.533 239.607C299.2 239.074 293.733 222.674 292.933 222.674C292.667 222.674 292.4 223.074 292.4 223.474Z" fill="#371A94" fill-opacity="0.2"/>
<path d="M39.7333 224.007C38.4 226.274 33.7333 240.407 34.2667 240.941C34.5333 241.207 36.1333 237.207 38 232.007C41.2 223.207 41.6 220.941 39.7333 224.007Z" fill="#371A94" fill-opacity="0.2"/>
<path d="M12.4 226.941C12.4 228.141 21.7333 241.341 22.6667 241.341C23.4667 241.341 18.9333 233.874 15.4667 229.607C13.8667 227.607 12.5333 226.407 12.4 226.941Z" fill="#371A94" fill-opacity="0.2"/>
<path d="M317.467 230.274C310.4 241.207 309.467 242.674 310 242.674C311.2 242.674 322 226.541 321.467 225.874C321.067 225.607 319.333 227.607 317.467 230.274Z" fill="#371A94" fill-opacity="0.2"/>
<path d="M163.2 242.407C161.6 245.341 162.667 250.274 165.067 251.207C167.733 252.141 170 248.674 169.467 244.407C168.933 240.007 165.2 238.674 163.2 242.407Z" fill="#371A94" fill-opacity="0.2"/>
<path d="M148.533 244.274C147.867 246.007 147.867 248.541 148.4 249.874C148.933 251.341 148.8 255.207 148.267 258.541C146.8 267.874 145.733 295.741 146.933 292.674C147.6 291.207 148.533 281.741 149.067 271.607C149.733 258.407 150.533 253.074 151.867 252.274C153.6 251.341 154.4 248.274 154 243.607C153.6 240.274 149.867 240.807 148.533 244.274Z" fill="#371A94" fill-opacity="0.2"/>
<path d="M178.667 243.874C178 246.807 180.4 252.407 182.4 252.141C183.2 252.141 183.733 249.741 183.733 247.074C183.733 241.474 180 239.074 178.667 243.874Z" fill="#371A94" fill-opacity="0.2"/>
<path d="M183.467 265.341C183.467 271.607 183.867 280.807 184.4 286.007C185.333 295.074 185.333 295.074 185.467 281.341C185.467 273.607 185.067 264.274 184.4 260.674C183.467 254.674 183.467 255.074 183.467 265.341Z" fill="#371A94" fill-opacity="0.2"/>
<path d="M20.4 266.274C20.4 267.341 30.1333 276.141 35.6 279.874C38.1333 281.474 38.1333 281.474 36.4 279.741C29.3333 272.674 20.4 265.207 20.4 266.274Z" fill="#371A94" fill-opacity="0.2"/>
<path d="M304.8 272.807L297.067 280.274L303.867 274.807C310.667 269.341 314.667 265.341 313.333 265.341C312.933 265.341 309.067 268.674 304.8 272.807Z" fill="#371A94" fill-opacity="0.2"/>
<path d="M282.8 308.807C277.733 311.341 273.733 313.741 273.733 314.007C273.733 314.674 292.267 305.741 293.6 304.541C295.467 302.807 290.533 304.807 282.8 308.807Z" fill="#371A94" fill-opacity="0.2"/>
<path d="M40.4 304.674C40.4 305.474 55.8667 313.341 57.3333 313.341C58.6667 313.207 42.8 304.007 41.4667 304.007C40.8 304.007 40.4 304.274 40.4 304.674Z" fill="#371A94" fill-opacity="0.2"/>
<path d="M87.8667 316.007C88.4 318.541 89.6 322.674 90.5333 325.341L92.4 330.007L91.6 325.341C91.0667 322.807 89.8667 318.674 88.9333 316.007L87.0667 311.341L87.8667 316.007Z" fill="#371A94" fill-opacity="0.2"/>
<path d="M243.333 320.274C241.733 325.474 240.667 330.007 240.933 330.407C241.333 330.674 242.933 326.674 244.533 321.474C246 316.141 247.067 311.607 246.8 311.207C246.4 310.941 244.8 314.941 243.333 320.274Z" fill="#371A94" fill-opacity="0.2"/>
<path d="M170.267 330.674C170.267 339.874 170.4 343.607 170.667 338.941C170.933 334.407 170.933 326.941 170.667 322.274C170.4 317.741 170.267 321.474 170.267 330.674Z" fill="#371A94" fill-opacity="0.2"/>
<path d="M111.2 334.007C111.2 335.474 112 338.407 113.067 340.674C115.333 345.874 115.467 342.141 113.067 336.007C111.867 332.941 111.2 332.274 111.2 334.007Z" fill="#371A94" fill-opacity="0.2"/>
<path d="M219.333 339.607C217.733 343.741 216.667 347.474 216.933 347.741C217.2 348.007 218.8 344.807 220.267 340.541C221.867 336.407 222.933 332.807 222.667 332.407C222.4 332.141 220.8 335.341 219.333 339.607Z" fill="#371A94" fill-opacity="0.2"/>
<path d="M75.0666 338.674C79.8666 340.141 84.4 341.207 85.0666 341.207C87.3333 340.941 71.8666 336.141 69.0666 336.141C67.6 336.141 70.2666 337.341 75.0666 338.674Z" fill="#371A94" fill-opacity="0.2"/>
<path d="M255.067 338.007C248.933 340.407 251.333 340.407 259.733 338.141C263.733 336.941 265.067 336.274 263.067 336.274C261.2 336.274 257.6 337.074 255.067 338.007Z" fill="#371A94" fill-opacity="0.2"/>
<path d="M101.067 360.141C107.867 361.474 113.333 361.474 107.733 360.007C105.6 359.474 102 358.941 99.7333 358.941C96.4 358.941 96.5333 359.207 101.067 360.141Z" fill="#371A94" fill-opacity="0.2"/>
<path d="M225.067 360.007L219.733 360.941H224.4C226.933 361.074 230.933 360.541 233.067 360.007C236.667 359.074 236.667 358.941 233.733 359.074C231.867 359.074 228 359.474 225.067 360.007Z" fill="#371A94" fill-opacity="0.2"/>
<path d="M188.4 371.741C188.4 377.741 188.933 379.874 190.4 380.541C192.267 381.207 192.4 380.007 192.133 373.074C191.867 368.007 191.067 364.674 190.133 364.274C188.8 363.874 188.4 366.007 188.4 371.741Z" fill="#371A94" fill-opacity="0.2"/>
</g>
<defs>
<clipPath id="clip0_1_200">
<rect width="333.674" height="399.313" fill="white"/>
</clipPath>
</defs>
</svg>
